<?xml version="1.0" encoding="iso-8859-1"?>
<!-- Generator: Adobe Illustrator 23.1.1, SVG Export Plug-In . SVG Version: 6.00 Build 0)  -->
<svg version="1.1" id="Layer_1" xmlns="http://www.w3.org/2000/svg" xmlns:xlink="http://www.w3.org/1999/xlink" x="0px" y="0px"
	 viewBox="0 0 618.919 618.919" style="enable-background:new 0 0 618.919 618.919;" xml:space="preserve">
<g>
	<rect x="269.1" y="64.831" style="fill:#382260;" width="82.509" height="371.289"/>
	<path style="fill:#382260;" d="M495.999,64.831L495.999,64.831c-51.054,29.454-82.509,83.916-82.509,142.857v228.432h82.509V64.831
		z"/>
	<path style="fill:#382260;" d="M124.71,436.121L124.71,436.121c51.054-29.454,82.509-83.916,82.509-142.857V64.831H124.71V436.121z
		"/>
	<g>
		<path style="fill:#382260;" d="M64.504,507.175v45.977h-10.13v-45.977H38.009v-8.416h42.859v8.416H64.504z"/>
		<path style="fill:#382260;" d="M114.142,529.774H98.245v23.378H88.037v-54.393h10.208v22.599h15.897v-22.599h10.208v54.393
			h-10.208V529.774z"/>
		<path style="fill:#382260;" d="M132.531,553.152v-7.637h12.235v-39.119h-12.235v-7.637h34.6v7.637h-12.234v39.119h12.234v7.637
			H132.531z"/>
		<path style="fill:#382260;" d="M184.974,553.152h-10.208v-54.393h20.651c10.52,0,16.365,6.468,16.365,16.832
			c0,7.948-3.896,13.793-10.676,15.273l11.611,22.287h-11.222l-10.364-21.118h-6.156V553.152z M193.313,524.085
			c5.455,0,7.715-2.183,7.715-7.014v-2.961c0-4.832-2.26-7.014-7.715-7.014h-8.338v16.988H193.313z"/>
		<path style="fill:#382260;" d="M219.417,498.759h16.91c14.105,0,20.962,9.585,20.962,27.196s-6.857,27.196-20.962,27.196h-16.91
			V498.759z M235.626,544.969c7.481,0,10.988-5.064,10.988-14.338v-9.43c0-9.195-3.507-14.261-10.988-14.261h-6.156v38.028H235.626z
			"/>
		<path style="fill:#382260;" d="M309.965,545.282l6.156-6.391c4.052,4.676,8.806,6.857,14.183,6.857
			c6.234,0,9.663-2.961,9.663-8.182c0-4.286-2.26-6.391-8.183-7.325l-5.767-0.936c-10.053-1.714-13.949-7.793-13.949-15.352
			c0-10.364,7.248-16.131,19.092-16.131c8.493,0,14.728,2.884,18.468,7.56l-6,6.39c-2.883-3.429-6.936-5.611-12.391-5.611
			c-5.844,0-8.883,2.494-8.883,7.325c0,4.131,2.26,6.156,8.26,7.17l5.688,1.013c9.352,1.715,13.949,7.092,13.949,15.195
			c0,10.131-7.092,17.223-20.261,17.223C320.719,554.087,314.095,550.58,309.965,545.282z"/>
		<path style="fill:#382260;" d="M382.436,507.175v45.977h-10.131v-45.977h-16.364v-8.416H398.8v8.416H382.436z"/>
		<path style="fill:#382260;" d="M414.073,553.152h-10.208v-54.393h20.65c10.521,0,16.364,6.468,16.364,16.832
			c0,7.948-3.896,13.793-10.676,15.273l11.611,22.287h-11.222l-10.364-21.118h-6.156V553.152z M422.41,524.085
			c5.455,0,7.715-2.183,7.715-7.014v-2.961c0-4.832-2.26-7.014-7.715-7.014h-8.338v16.988H422.41z"/>
		<path style="fill:#382260;" d="M447.736,553.152v-54.393h34.366v8.416h-24.157v14.183h23.3v8.416h-23.3v14.962h24.157v8.416
			H447.736z"/>
		<path style="fill:#382260;" d="M524.57,553.152l-3.818-13.793H504.62l-3.74,13.793h-10.287l15.274-54.393h14.183l15.352,54.393
			H524.57z M513.036,508.812h-0.624l-6,22.209h12.624L513.036,508.812z"/>
		<path style="fill:#382260;" d="M572.026,527.982l0.468-15.741h-0.701l-10.521,27.976l-10.521-27.976h-0.701l0.468,15.741v25.17
			h-8.884v-54.393h12.157l7.559,20.027h0.545l7.638-20.027h11.377v54.393h-8.884V527.982z"/>
	</g>
</g>
</svg>
