<?xml version="1.0" encoding="iso-8859-1"?>
<!-- Generator: Adobe Illustrator 23.1.1, SVG Export Plug-In . SVG Version: 6.00 Build 0)  -->
<svg version="1.1" id="Layer_1" xmlns="http://www.w3.org/2000/svg" xmlns:xlink="http://www.w3.org/1999/xlink" x="0px" y="0px"
	 viewBox="0 0 662.539 271.59" style="enable-background:new 0 0 662.539 271.59;" xml:space="preserve">
<g>
	<rect x="112.982" y="39.53" style="fill:#382260;" width="42.034" height="189.152"/>
	<path style="fill:#382260;" d="M228.575,39.53L228.575,39.53c-26.01,15.005-42.034,42.751-42.034,72.778v116.374h42.034V39.53z"/>
	<path style="fill:#382260;" d="M39.423,228.682L39.423,228.682c26.01-15.005,42.034-42.751,42.034-72.778V39.53H39.423V228.682z"/>
	<g>
		<path style="fill:#382260;" d="M324.731,57.598v55.943h-12.326V57.598h-19.912v-10.24h52.15v10.24H324.731z"/>
		<path style="fill:#382260;" d="M385.129,85.096h-19.343v28.445h-12.421V47.358h12.421v27.498h19.343V47.358h12.421v66.183h-12.421
			V85.096z"/>
		<path style="fill:#382260;" d="M407.504,113.541v-9.292h14.887V56.651h-14.887v-9.292h42.1v9.292h-14.887v47.599h14.887v9.292
			H407.504z"/>
		<path style="fill:#382260;" d="M471.315,113.541h-12.421V47.358h25.126c12.801,0,19.912,7.87,19.912,20.481
			c0,9.671-4.741,16.783-12.99,18.584l14.128,27.118h-13.653l-12.611-25.696h-7.49V113.541z M481.461,78.174
			c6.637,0,9.387-2.655,9.387-8.534v-3.603c0-5.879-2.75-8.534-9.387-8.534h-10.146v20.67H481.461z"/>
		<path style="fill:#382260;" d="M513.224,47.358h20.575c17.162,0,25.506,11.663,25.506,33.092c0,21.429-8.344,33.091-25.506,33.091
			h-20.575V47.358z M532.945,103.585c9.103,0,13.37-6.163,13.37-17.446V74.666c0-11.188-4.268-17.352-13.37-17.352h-7.49v46.271
			H532.945z"/>
		<path style="fill:#382260;" d="M293.442,210.634l7.49-7.775c4.931,5.689,10.715,8.344,17.257,8.344
			c7.585,0,11.757-3.603,11.757-9.956c0-5.215-2.75-7.775-9.956-8.913l-7.017-1.138c-12.231-2.086-16.972-9.482-16.972-18.679
			c0-12.611,8.818-19.627,23.23-19.627c10.335,0,17.92,3.508,22.472,9.197l-7.301,7.775c-3.508-4.172-8.439-6.827-15.076-6.827
			c-7.111,0-10.81,3.034-10.81,8.913c0,5.025,2.75,7.49,10.051,8.723l6.922,1.232c11.378,2.086,16.973,8.628,16.973,18.49
			c0,12.326-8.629,20.955-24.653,20.955C306.526,221.348,298.467,217.081,293.442,210.634z"/>
		<path style="fill:#382260;" d="M381.621,164.267v55.943h-12.326v-55.943h-19.912v-10.24h52.149v10.24H381.621z"/>
		<path style="fill:#382260;" d="M420.115,220.21h-12.422v-66.183h25.127c12.801,0,19.912,7.87,19.912,20.481
			c0,9.671-4.741,16.783-12.99,18.584l14.128,27.118h-13.653l-12.611-25.696h-7.49V220.21z M430.261,184.843
			c6.637,0,9.387-2.655,9.387-8.534v-3.603c0-5.879-2.75-8.534-9.387-8.534h-10.146v20.67H430.261z"/>
		<path style="fill:#382260;" d="M461.075,220.21v-66.183h41.814v10.24h-29.394v17.257h28.351v10.24h-28.351v18.205h29.394v10.24
			H461.075z"/>
		<path style="fill:#382260;" d="M554.563,220.21l-4.646-16.783H530.29l-4.551,16.783h-12.517l18.585-66.183h17.257l18.679,66.183
			H554.563z M540.53,166.259h-0.759l-7.301,27.023h15.36L540.53,166.259z"/>
		<path style="fill:#382260;" d="M612.307,189.584l0.569-19.153h-0.854l-12.801,34.04l-12.801-34.04h-0.853l0.568,19.153v30.626
			h-10.809v-66.183h14.791l9.197,24.368h0.664l9.292-24.368h13.844v66.183h-10.81V189.584z"/>
	</g>
</g>
</svg>
